PathFileType	4	(X/Y/Z)	PS_ngait_og_ss9.trc	
DataRate	CameraRate	NumFrames	NumMarkers	Units	OrigDataRate	OrigDataStartFrame	OrigNumFrames	
120.00	120.00	5	39	mm	120.00	618	130	
Frame#	Time	Sternum			Neck			RShoulder			LShoulder			Xiphoid			Thoracic			RAsis			LAsis			RPsis			LPsis			LThighSuperior			LThighInferior			LThighLateral			LShankSuperior			LShankInferior			LShankLateral			RThighSuperior			RThighInferior			RThighLateral			RShankSuperior			RShankInferior			RShankLateral			RHeel			RToe			RMidfootMedial			RMidfootLateral			RHindfoot			RMidfootSuperior			RToeMedial			RToeLateral			LHeel			LToe			LMidfootMedial			LMidfootLateral			LHindfoot			LMidfootSuperior			LToeMedial			LToeLateral			Sacral			
		X1	Y1	Z1	X2	Y2	Z2	X3	Y3	Z3	X4	Y4	Z4	X5	Y5	Z5	X6	Y6	Z6	X7	Y7	Z7	X8	Y8	Z8	X9	Y9	Z9	X10	Y10	Z10	X11	Y11	Z11	X12	Y12	Z12	X13	Y13	Z13	X14	Y14	Z14	X15	Y15	Z15	X16	Y16	Z16	X17	Y17	Z17	X18	Y18	Z18	X19	Y19	Z19	X20	Y20	Z20	X21	Y21	Z21	X22	Y22	Z22	X23	Y23	Z23	X24	Y24	Z24	X25	Y25	Z25	X26	Y26	Z26	X27	Y27	Z27	X28	Y28	Z28	X29	Y29	Z29	X30	Y30	Z30	X31	Y31	Z31	X32	Y32	Z32	X33	Y33	Z33	X34	Y34	Z34	X35	Y35	Z35	X36	Y36	Z36	X37	Y37	Z37	X38	Y38	Z38	X39	Y39	Z39	

114	0.942	1030.04895	1445.92383	186.82355	868.86322	1546.69861	208.38408	926.61676	1528.08740	362.79382	888.32648	1537.65369	63.72594	1062.50781	1287.60229	186.42371	784.10858	1329.65820	214.93681	982.17249	1026.27478	324.82932	973.36084	1017.47040	50.56398	789.60321	1045.83362	252.35678	780.57568	1039.72864	149.54448	946.02759	850.65546	-6.97608	1050.89734	642.43018	4.15428	1089.17786	766.14465	51.49018	1076.28027	416.08316	-8.69361	1051.25525	215.84914	28.88190	1108.40417	311.15012	56.96243	908.27271	826.95166	369.40829	889.32751	587.90790	335.08521	992.49652	735.82379	297.56509	850.43121	431.21405	338.60394	813.99420	178.33925	297.15350	885.38373	299.06366	260.02435	713.62091	67.90021	241.53056	1030.29236	47.95952	253.57654	933.87177	32.57358	202.11044	928.66022	29.84870	321.45010	874.07983	31.10365	311.45917	898.05743	95.02177	252.06779	977.22302	34.31662	205.79036	977.47772	35.19809	309.26825	971.78369	97.37547	96.74794	1268.40063	75.83339	9.89965	1183.78162	55.81073	85.63999	1156.90967	48.37827	-25.66540	1107.29602	50.63086	-5.20269	1153.50806	118.65948	39.31055	1223.61926	55.75293	71.84566	1200.81445	57.64532	-29.62256	785.08942	1042.78113	200.95062 
115	0.950	1038.78552	1444.89734	187.24487	877.81525	1545.85132	207.73836	935.34924	1527.20874	362.15314	897.68738	1536.85828	62.94453	1070.91602	1286.20032	186.38678	792.59729	1329.01758	213.71985	989.38306	1025.12695	324.87881	981.93689	1016.17706	50.48276	797.22070	1045.05115	251.43112	788.74030	1038.84216	148.56621	953.94757	849.51508	-7.38407	1058.03809	640.84399	5.76528	1096.60889	764.27478	53.14146	1090.14111	414.12216	-8.33520	1074.62756	212.62592	26.79468	1127.52246	310.21967	55.86502	914.54572	826.34052	369.00421	893.80957	587.48169	335.03320	998.23389	734.57190	297.57114	853.75629	430.87115	338.46732	814.97894	178.32913	297.13831	887.51190	298.70126	259.81113	713.62195	68.08579	241.54567	1030.32446	47.73762	253.47348	934.21375	32.17887	202.27763	928.65094	29.72146	321.45929	874.00201	31.12765	311.47064	898.05023	94.68726	251.90314	977.24023	33.91517	205.75549	977.55072	35.09182	309.23032	1001.02960	90.22526	93.55331	1298.29321	81.62337	6.11989	1214.82312	57.63987	82.07380	1188.15552	49.22418	-28.88064	1138.19080	49.83809	-8.78337	1181.75476	119.30656	36.17651	1254.62927	59.42574	68.14104	1231.50012	60.45441	-33.26620	792.98053	1041.94666	199.99867 
116	0.958	1047.63916	1443.43396	186.86281	886.92096	1544.95337	207.01079	944.14026	1526.24585	361.46902	907.10303	1535.91504	62.36548	1079.36255	1284.87866	186.22685	801.09222	1328.31006	212.59753	996.63702	1024.14087	324.90350	990.67389	1014.70013	50.48775	804.90961	1044.31921	250.39627	797.01300	1037.90405	147.52457	962.06561	847.94031	-7.61714	1064.67200	638.92535	7.53557	1103.72876	762.26733	54.72503	1103.49512	411.50055	-8.20802	1097.92310	209.67062	24.77369	1146.14868	309.64438	54.92918	920.74408	825.58447	368.87714	898.41431	586.95392	334.89511	1003.99054	733.35791	297.45746	857.02795	430.64798	338.34238	816.02692	178.29720	297.09052	889.80762	298.14828	259.68661	713.64728	68.27962	241.50121	1030.47681	47.41936	253.50072	934.12439	32.31675	202.02228	928.60938	29.63280	321.49200	874.04248	31.07991	311.49020	898.38873	94.88853	251.87999	977.39716	33.91524	205.68657	977.58630	34.85006	309.16412	1030.41052	83.94077	90.46262	1327.60645	87.98544	2.60738	1245.28271	60.20395	78.48524	1218.63831	51.52029	-32.55156	1168.78748	49.72746	-12.15724	1209.54297	120.74731	32.99736	1284.94934	63.64235	64.52415	1261.62537	64.50991	-36.83995	800.96130	1041.11169	198.96042 
117	0.967	1056.57654	1441.90881	186.32088	896.05396	1543.94116	206.26749	952.90265	1525.22229	360.68286	916.59668	1535.01501	61.67811	1087.91858	1283.38818	185.91336	809.56226	1327.51013	211.36867	1003.90875	1023.30066	325.10059	999.55475	1013.01904	50.51496	812.66553	1043.51282	249.36980	805.41370	1036.89001	146.42154	970.19495	846.04883	-7.68995	1071.02539	636.63434	9.58815	1110.68542	759.83307	56.12673	1116.29321	410.50195	-7.51684	1120.81726	207.48495	22.82518	1164.27527	309.49710	53.81000	927.10474	825.13800	368.86285	903.12036	586.46045	334.78024	1009.89148	732.18976	297.36783	860.49158	430.51700	338.35190	817.12457	178.41399	297.05563	891.98846	297.68753	259.58548	713.71112	68.45876	241.46727	1030.67114	47.11101	253.55467	933.78589	32.65841	201.78563	928.58191	29.59646	321.56644	874.06641	31.16997	311.46851	898.84198	95.30048	252.12302	977.51678	34.07580	205.69337	977.71606	34.61739	309.17374	1059.39038	78.77117	87.28661	1356.03699	94.93571	-0.78087	1275.14783	63.70876	75.13670	1248.77625	54.18563	-35.94704	1198.99829	50.44728	-15.61835	1236.91870	122.84283	29.81523	1314.53674	68.76083	61.17480	1290.98999	68.85257	-40.14145	809.03961	1040.20142	197.89566 
118	0.975	1065.45801	1440.34631	185.70171	905.17682	1542.89734	205.37509	961.73535	1524.16174	359.86447	926.22241	1534.04688	60.70678	1096.43713	1281.78003	185.77565	818.12524	1326.68665	209.87000	1011.33392	1022.26843	325.20093	1008.56311	1011.45496	50.58440	820.53918	1042.56458	248.37033	813.88422	1035.77222	145.27960	977.89160	844.33551	-7.92426	1077.05835	634.56030	11.49777	1117.57019	757.38544	57.67258	1128.37158	408.60825	-7.39105	1143.01501	206.57155	20.46138	1181.81653	309.71332	52.38808	933.69598	824.56226	368.68536	907.76398	585.93823	334.65576	1015.83728	730.80042	297.28860	864.01178	430.20316	338.16458	818.13538	178.52388	296.98840	894.13361	297.20120	259.63687	713.84906	68.66232	241.53220	1030.84314	46.79283	253.59184	933.68127	32.77359	201.60793	928.58087	29.51509	321.63123	874.09998	31.10939	311.44897	899.19775	95.48286	252.18584	977.66595	34.05412	205.67613	977.81104	34.38843	309.15744	1087.98523	74.60593	84.15194	1383.79553	102.36954	-3.81154	1304.15674	67.76424	71.94717	1278.00037	57.71721	-39.00014	1228.41919	52.00551	-18.65076	1263.52539	125.70464	26.79764	1343.31836	74.35817	58.01781	1319.77087	74.04326	-43.29781	817.21173	1039.16846	196.82497 
